PathFileType	4	(X/Y/Z)	s11c0103.trc
DataRate	CameraRate	NumFrames	NumMarkers	Units	OrigDataRate	OrigDataStartFrame	OrigNumFrames
200	200	6	48	mm	200	1250	2000
Frame#	Time	racr			lacr			c7			jug			rlel			rdr			llel			ldr			s2			lic			ric			lasi			rasi			rpsi			lpsi			rgt			lgt			rth1			rth2			rth3			rth4			rlfc			rmfc			rsh1			rsh2			rsh3			rsh4			rlmal			rcal			rtoe			rmt5			lth1			lth2			lth4			lth3			llfc			lmfc			llmal			lcal			lmt5			lsh1			lsh2			lsh3			lsh4			ltoe			SBIKE			LBIKE			RBIKE			
		X1	Y1	Z1	X2	Y2	Z2	X3	Y3	Z3	X4	Y4	Z4	X5	Y5	Z5	X6	Y6	Z6	X7	Y7	Z7	X8	Y8	Z8	X9	Y9	Z9	X10	Y10	Z10	X11	Y11	Z11	X12	Y12	Z12	X13	Y13	Z13	X14	Y14	Z14	X15	Y15	Z15	X16	Y16	Z16	X17	Y17	Z17	X18	Y18	Z18	X19	Y19	Z19	X20	Y20	Z20	X21	Y21	Z21	X22	Y22	Z22	X23	Y23	Z23	X24	Y24	Z24	X25	Y25	Z25	X26	Y26	Z26	X27	Y27	Z27	X28	Y28	Z28	X29	Y29	Z29	X30	Y30	Z30	X31	Y31	Z31	X32	Y32	Z32	X33	Y33	Z33	X34	Y34	Z34	X35	Y35	Z35	X36	Y36	Z36	X37	Y37	Z37	X38	Y38	Z38	X39	Y39	Z39	X40	Y40	Z40	X41	Y41	Z41	X42	Y42	Z42	X43	Y43	Z43	X44	Y44	Z44	X45	Y45	Z45	X46	Y46	Z46	X47	Y47	Z47	X48	Y48	Z48	
1250	6.2500	531.449145	1365.967096	-146.133776	479.628433	1358.053635	-426.304626	443.940619	1448.598186	-280.156407	456.918180	1265.259856	-287.681640	628.922231	1158.358918	19.540983	789.244762	929.180192	-69.266348	509.891165	1107.299791	-592.756651	766.225099	928.321356	-478.590324	-110.742598	1207.125293	-223.031011	70.946609	1260.943223	-442.187043	121.710490	1205.482841	-35.417328	108.494291	1194.096311	-399.212724	147.688166	1147.027124	-70.000968	-71.300932	1281.134251	-157.053760	-83.495155	1284.915984	-248.000208	41.637694	1045.952841	-24.614879	19.463205	1149.098523	-456.811744	120.131055	927.376685	-16.609034	188.259148	869.548425	-23.757420	218.502183	790.178153	-45.012305	218.504893	891.847836	-26.523827	279.257059	704.557444	-64.385180	292.927027	692.021568	-189.490899	211.299906	561.746486	-54.220397	192.766202	477.832355	-75.356650	135.804945	412.104303	-79.150345	217.326727	470.101004	-104.808725	70.553165	287.175173	-95.904689	6.458346	285.923533	-144.724419	271.848375	176.075059	-146.427363	198.386923	167.269963	-76.521637	160.576146	1107.533269	-470.572066	246.150233	1105.134458	-468.038452	257.859189	1137.532121	-452.766922	322.577412	1058.457882	-475.389033	454.745254	1003.241393	-458.220561	470.763053	997.159364	-324.389435	263.186416	620.003648	-420.256011	198.394860	603.764312	-384.297494	358.730129	472.882103	-452.105693	406.042683	895.087876	-468.504320	393.119432	810.801282	-455.252568	338.763453	741.304264	-447.887467	423.086877	801.020756	-432.655731	455.581479	451.766319	-387.546346	-215.608073	951.357459	-254.354660	-18.060452	81.651503	-460.465050	-17.962978	81.016417	-61.786075	
1251	6.2550	533.020552	1362.056723	-147.565403	480.899519	1354.151418	-426.577462	445.019599	1446.695354	-281.081616	455.797498	1263.112035	-288.365064	629.866917	1156.533850	19.713926	789.230889	928.747067	-68.620821	510.722274	1104.619139	-592.513526	764.947340	927.401396	-477.521552	-110.953919	1208.744816	-221.313184	70.318179	1261.600163	-442.781587	121.661533	1206.391629	-35.321589	107.264293	1194.055287	-400.277606	147.409229	1147.160245	-69.503172	-70.213852	1282.760291	-157.275845	-83.252824	1286.608156	-247.716534	41.700811	1047.143817	-24.393191	17.161345	1148.988572	-455.739812	122.167013	929.375564	-16.992369	191.005470	872.445349	-23.993964	222.448345	793.409616	-44.784479	220.880372	895.146052	-26.781103	284.227544	708.321343	-63.858691	297.656136	695.917124	-188.946266	212.953326	566.779845	-53.885271	192.568793	483.219875	-75.097521	134.241696	418.720937	-79.117071	217.077911	475.055448	-104.472553	66.525088	295.933967	-95.646175	2.420589	296.598994	-144.797245	263.853160	177.728393	-146.183885	190.100752	171.859468	-76.625236	157.970204	1105.906258	-470.039990	243.481752	1102.293219	-467.847590	255.657836	1134.645560	-452.722869	319.143158	1054.603065	-475.617358	453.171103	995.871899	-457.719997	468.285505	990.113009	-324.500466	264.911225	610.429651	-420.742075	199.757799	591.067304	-385.338867	366.217428	467.942789	-452.957471	404.932593	887.605086	-469.138819	392.931151	803.156515	-456.038432	339.262758	733.151271	-448.481147	422.957727	793.776621	-433.305134	463.902981	452.206409	-387.684597	-215.579095	951.362083	-254.153100	-18.063134	81.728369	-460.375076	-17.956995	80.994794	-61.754474	
1252	6.2600	534.555274	1357.974722	-148.961972	482.205141	1350.477237	-426.744971	445.963246	1445.092410	-281.606436	453.625139	1261.240905	-288.306806	630.523935	1154.432889	20.019771	787.915015	928.048107	-68.736819	511.408840	1101.444695	-592.240999	765.031455	928.308192	-479.030265	-110.835256	1210.156826	-220.724335	69.809532	1262.142303	-443.288465	121.427069	1207.779829	-35.145912	106.199733	1193.418494	-401.120860	146.701338	1147.315896	-69.328581	-68.441154	1284.257393	-157.712457	-82.804667	1288.038036	-247.491183	42.128268	1048.156561	-24.310978	14.875312	1148.585851	-454.577848	124.512009	931.221236	-17.463844	193.996196	875.291435	-24.434806	226.896843	796.539004	-44.786370	223.507816	898.514894	-27.361964	289.403282	711.942382	-63.377223	302.407688	699.663619	-188.679301	214.952779	571.916151	-53.658693	192.792237	489.026579	-74.994199	133.174004	425.687871	-79.138656	217.194660	480.244713	-104.388437	62.649680	305.041209	-95.576647	-1.220710	307.736198	-144.986391	256.156754	180.125227	-146.141175	182.226125	176.901428	-76.651336	155.567956	1103.400274	-469.698147	240.996856	1098.432305	-467.833924	253.778840	1130.665792	-453.005849	315.868470	1049.649566	-475.859256	451.555653	987.904451	-456.823395	466.168274	982.138237	-324.871759	266.216457	599.787039	-421.539703	200.821860	577.447858	-386.555350	373.394574	462.312765	-453.956677	403.471713	879.207162	-469.885816	392.303970	794.446155	-456.818660	339.336976	723.844850	-449.293249	422.420551	785.421257	-434.166795	471.410363	451.868844	-387.815809	-215.542775	951.417911	-254.107009	-18.058672	81.753826	-460.375780	-17.962582	80.989108	-61.735772	
1253	6.2650	536.077174	1353.825356	-150.079357	483.422631	1347.063101	-427.005402	446.874868	1444.033245	-282.281008	452.235286	1259.731838	-288.624665	630.948881	1152.118973	20.478966	787.537975	927.792766	-68.128620	511.161482	1097.753426	-591.380089	763.765558	927.519795	-477.781206	-110.597755	1211.456147	-219.969092	69.382054	1262.438013	-443.684067	121.319658	1208.719496	-34.811508	105.414921	1192.597974	-402.309840	145.781099	1147.444606	-69.109671	-65.844442	1285.624392	-158.381955	-82.217674	1289.164307	-247.203166	42.840434	1049.070629	-24.103708	12.842623	1147.889694	-453.546923	127.103966	933.161105	-18.083699	197.191999	878.208069	-25.100647	231.179455	799.808933	-44.880512	226.327679	901.785207	-28.187681	294.818089	715.583264	-63.013880	307.125410	703.667635	-188.648471	217.335140	577.224711	-53.582508	193.447365	494.831745	-74.954142	132.410409	432.880191	-79.370418	217.635085	485.666762	-104.296651	59.618440	314.635109	-95.063308	-4.309623	319.118836	-145.155471	248.696100	182.971820	-146.319812	174.785506	182.451603	-76.697294	153.634019	1099.891067	-469.575439	238.975677	1093.464989	-468.082603	252.319703	1125.699420	-453.537589	313.229617	1043.467801	-476.236814	449.170752	979.442346	-456.362826	463.818885	972.946209	-324.960506	267.055870	588.091088	-422.849961	201.317923	562.774142	-388.271501	380.265875	456.097778	-454.827869	401.740695	869.358285	-470.536860	391.292072	784.899010	-457.802496	338.935981	713.757614	-450.274510	421.490268	775.839086	-434.891469	478.214890	451.016058	-387.782568	-215.488290	951.364360	-253.993599	-18.064431	81.756666	-460.371000	-17.962165	80.988549	-61.716953	
1254	6.2700	537.479004	1349.678173	-150.995076	484.413882	1344.151052	-427.399682	447.826538	1443.217815	-282.829402	450.816199	1258.418294	-288.917598	631.023716	1149.722455	20.983495	787.078427	927.651146	-67.602483	511.056840	1094.431470	-591.224434	764.064493	928.360869	-478.772353	-110.247609	1212.439501	-219.364805	69.221608	1262.497069	-444.102437	120.755803	1209.678461	-34.577246	105.029104	1191.283517	-403.544523	144.816281	1147.493471	-68.927889	-62.285315	1286.860004	-159.302664	-81.147640	1290.344004	-247.131818	43.409297	1049.790533	-24.328015	10.159361	1146.257691	-451.126726	129.812290	935.115563	-18.806065	200.641762	881.157010	-25.984020	235.741937	803.138675	-45.111767	229.359730	905.161850	-29.319691	300.430362	719.414237	-62.625539	311.878802	707.537315	-188.480083	220.000143	582.832926	-53.565242	194.371652	500.949550	-74.986210	131.987152	440.248280	-79.511376	218.473499	491.220821	-104.353069	56.406077	324.184317	-95.205186	-6.891121	330.768523	-145.472838	241.559386	186.304916	-146.603424	167.825246	188.510528	-76.805702	152.173091	1095.364754	-469.800358	237.507055	1087.645447	-468.448841	251.274568	1119.640200	-454.364503	310.769640	1036.377549	-476.865412	446.066363	970.126114	-456.433961	461.711223	962.934561	-325.231904	267.465900	575.785196	-424.747083	201.983077	546.711317	-390.024868	386.422231	449.222820	-455.569934	399.659946	858.790162	-471.429765	389.822489	774.118952	-458.513063	338.101742	702.693953	-451.268679	420.022799	765.583219	-435.767372	484.218299	449.720899	-387.489132	-215.445631	951.360921	-254.016592	-18.061667	81.687149	-460.353335	-17.940787	80.963253	-61.726916	
1255	6.2750	538.363263	1345.664163	-151.809420	485.063384	1341.890510	-428.028731	448.757098	1442.488417	-283.111183	449.290482	1257.553906	-288.783005	630.613821	1147.238847	21.610148	786.615932	927.522398	-67.301241	510.311501	1091.672078	-591.016740	763.176110	927.422027	-477.093019	-109.871540	1213.252800	-218.832006	68.985690	1261.991860	-443.885619	120.185996	1210.544909	-34.236538	104.734259	1189.616367	-404.616797	143.673498	1147.358829	-68.756142	-62.030124	1288.048776	-159.356758	-80.022197	1290.883871	-247.111676	43.240198	1050.439722	-25.933253	8.977441	1144.986832	-451.122564	133.508462	937.663455	-18.760410	204.259917	883.984070	-26.985362	240.518333	806.561076	-45.461076	232.492311	908.328870	-31.230938	306.174948	723.387461	-62.346342	316.521217	711.685526	-188.577788	222.887900	588.511286	-53.561100	195.697282	507.033480	-75.018580	131.993053	447.939976	-79.678381	219.443682	497.097030	-104.433691	53.759235	333.946131	-95.435639	-8.881971	342.551508	-145.688314	234.767047	189.942029	-146.805388	161.275695	195.013136	-76.938762	151.033782	1090.275088	-470.298578	236.227565	1081.032259	-469.005071	250.449007	1112.655760	-455.205113	308.565023	1028.496759	-477.463003	442.606385	960.241659	-456.449475	459.495368	952.132530	-325.428724	267.500894	562.415361	-426.672448	202.336367	529.974270	-391.254503	391.500303	441.409089	-456.446478	397.067015	847.236043	-472.589683	387.900744	762.681516	-459.403047	336.742513	690.720406	-452.203936	418.096446	754.329652	-436.442940	489.075895	447.744685	-387.819615	-215.419018	951.320698	-254.102408	-18.065461	81.569629	-460.395306	-17.937497	80.942384	-61.731885	
